<svg width="118" height="42" viewBox="0 0 118 42" fill="none" xmlns="http://www.w3.org/2000/svg">
<rect width="118" height="42" rx="1" fill="#0B0B0B"/>
<path d="M39.896 33.946H33.776V22.858H23.12V33.946H17V7.72H23.12V18.682H33.776V7.72H39.896V33.946Z" fill="white"/>
<path d="M57.3149 33.946C56.9669 33.946 56.6729 33.868 56.4329 33.712C56.2049 33.556 56.0429 33.322 55.9469 33.01L55.5149 31.588C55.1429 31.984 54.7529 32.344 54.3449 32.668C53.9369 32.992 53.4929 33.274 53.0129 33.514C52.5449 33.742 52.0349 33.916 51.4829 34.036C50.9429 34.168 50.3549 34.234 49.7189 34.234C48.7469 34.234 47.8469 34.018 47.0189 33.586C46.1909 33.154 45.4769 32.53 44.8769 31.714C44.2769 30.898 43.8029 29.902 43.4549 28.726C43.1189 27.538 42.9509 26.188 42.9509 24.676C42.9509 23.284 43.1429 21.994 43.5269 20.806C43.9109 19.606 44.4509 18.574 45.1469 17.71C45.8549 16.834 46.7009 16.15 47.6849 15.658C48.6689 15.166 49.7549 14.92 50.9429 14.92C51.9029 14.92 52.7129 15.064 53.3729 15.352C54.0449 15.628 54.6509 15.994 55.1909 16.45V7H60.7709V33.946H57.3149ZM51.6629 29.95C52.0709 29.95 52.4369 29.914 52.7609 29.842C53.0969 29.758 53.4029 29.644 53.6789 29.5C53.9549 29.356 54.2129 29.176 54.4529 28.96C54.7049 28.744 54.9509 28.492 55.1909 28.204V20.284C54.7589 19.816 54.2969 19.492 53.8049 19.312C53.3249 19.12 52.8149 19.024 52.2749 19.024C51.7589 19.024 51.2849 19.126 50.8529 19.33C50.4209 19.534 50.0429 19.864 49.7189 20.32C49.4069 20.764 49.1609 21.346 48.9809 22.066C48.8009 22.786 48.7109 23.656 48.7109 24.676C48.7109 25.66 48.7829 26.488 48.9269 27.16C49.0709 27.832 49.2689 28.378 49.5209 28.798C49.7849 29.206 50.0969 29.5 50.4569 29.68C50.8169 29.86 51.2189 29.95 51.6629 29.95Z" fill="white"/>
<path d="M73.0858 14.992C74.3218 14.992 75.4497 15.184 76.4697 15.568C77.5018 15.952 78.3838 16.51 79.1157 17.242C79.8597 17.974 80.4358 18.874 80.8438 19.942C81.2638 20.998 81.4737 22.198 81.4737 23.542C81.4737 23.962 81.4557 24.304 81.4197 24.568C81.3837 24.832 81.3177 25.042 81.2217 25.198C81.1257 25.354 80.9937 25.462 80.8257 25.522C80.6698 25.582 80.4657 25.612 80.2137 25.612H69.4497C69.6297 27.172 70.1037 28.306 70.8717 29.014C71.6398 29.71 72.6297 30.058 73.8418 30.058C74.4897 30.058 75.0478 29.98 75.5158 29.824C75.9837 29.668 76.3978 29.494 76.7578 29.302C77.1298 29.11 77.4658 28.936 77.7658 28.78C78.0778 28.624 78.4018 28.546 78.7378 28.546C79.1818 28.546 79.5177 28.708 79.7457 29.032L81.3657 31.03C80.7897 31.69 80.1657 32.23 79.4937 32.65C78.8337 33.058 78.1497 33.382 77.4417 33.622C76.7458 33.85 76.0438 34.006 75.3358 34.09C74.6398 34.186 73.9738 34.234 73.3377 34.234C72.0298 34.234 70.7998 34.024 69.6478 33.604C68.5078 33.172 67.5057 32.536 66.6418 31.696C65.7897 30.856 65.1118 29.812 64.6077 28.564C64.1157 27.316 63.8698 25.864 63.8698 24.208C63.8698 22.96 64.0798 21.778 64.4998 20.662C64.9318 19.546 65.5438 18.568 66.3358 17.728C67.1398 16.888 68.1058 16.222 69.2337 15.73C70.3737 15.238 71.6577 14.992 73.0858 14.992ZM73.1938 18.844C72.1258 18.844 71.2917 19.15 70.6917 19.762C70.0918 20.362 69.6958 21.232 69.5037 22.372H76.4697C76.4697 21.928 76.4097 21.496 76.2897 21.076C76.1817 20.656 75.9958 20.284 75.7318 19.96C75.4798 19.624 75.1438 19.354 74.7238 19.15C74.3037 18.946 73.7938 18.844 73.1938 18.844Z" fill="white"/>
<path d="M94.3046 33.946H89.2287L81.9927 15.28H86.6367C87.0327 15.28 87.3627 15.376 87.6267 15.568C87.9027 15.748 88.0887 15.976 88.1847 16.252L90.7766 24.622C90.9807 25.306 91.1727 25.972 91.3527 26.62C91.5447 27.268 91.7066 27.916 91.8387 28.564C91.9706 27.916 92.1327 27.268 92.3247 26.62C92.5167 25.972 92.7206 25.306 92.9367 24.622L95.6367 16.252C95.7327 15.976 95.9127 15.748 96.1767 15.568C96.4407 15.376 96.7527 15.28 97.1127 15.28H101.541L94.3046 33.946Z" fill="white"/>
</svg>
