<svg width="20" height="20" viewBox="0 0 20 20" fill="none" xmlns="http://www.w3.org/2000/svg">
<path d="M10 18.3334C14.6024 18.3334 18.3333 14.6024 18.3333 10C18.3333 5.39765 14.6024 1.66669 10 1.66669C5.39762 1.66669 1.66666 5.39765 1.66666 10C1.66666 14.6024 5.39762 18.3334 10 18.3334Z" stroke="black" stroke-width="2" stroke-linecap="round" stroke-linejoin="round"/>
<path d="M18.125 10.7C15.2083 9.92502 12.6 10.0167 10.675 10.7C8.525 11.4667 6.5 13.0834 4.475 15.9667M7.13333 2.29169C10.775 7.31669 12.15 10.1417 13.825 17.0584L7.13333 2.29169ZM15.9417 4.24169C12.8417 7.86669 8.49167 8.95835 1.875 9.11669L15.9417 4.24169Z" stroke="black" stroke-width="2" stroke-linecap="round" stroke-linejoin="round"/>
</svg>
